<svg width="46" height="9" viewBox="0 0 46 9" fill="none" xmlns="http://www.w3.org/2000/svg">
<path d="M0 8.83154V0.325439H6.39762C8.62467 0.325439 9.42373 0.670839 9.42373 2.35659V6.79523C9.42373 8.46552 8.67622 8.82638 6.39762 8.82638H0V8.83154ZM7.67095 2.71746C7.67095 1.77921 7.24823 1.53176 5.94911 1.53176H1.76308V7.62006H5.94396C7.20698 7.62006 7.6658 7.37777 7.6658 6.44983V2.71746H7.67095Z" fill="#FFCB05"/>
<path d="M20.0485 7.13032H15.1047L14.3726 8.83154H12.4446L16.445 0.325439H18.6566L22.6571 8.83154H20.7909L20.0434 7.13032H20.0485ZM15.6202 5.96008H19.533L17.5637 1.49567L15.6202 5.96008Z" fill="#FFCB05"/>
<path d="M27.7348 8.83154V5.35693L23.7446 0.325439H25.7912L28.6215 4.11967L31.4671 0.325439H33.4622L29.4875 5.35693V8.83154H27.7348Z" fill="#FFCB05"/>
<path d="M36.3441 8.83154V7.62006H43.0098C43.8347 7.62006 44.0667 7.3623 44.0667 6.69212V5.98586C44.0667 5.44456 43.7573 5.16103 43.1284 5.16103H38.3547C36.9782 5.16103 36.272 4.5424 36.272 3.54229V2.15038C36.272 0.825495 36.7359 0.325439 38.6537 0.325439H45.1802V1.53691H39.0042C38.1536 1.53691 37.9216 1.80498 37.9216 2.46485V3.14534C37.9216 3.68664 38.231 3.97017 38.8857 3.97017H43.6233C45.0668 3.97017 45.7215 4.61457 45.7215 5.71779V6.99113C45.7215 8.29024 45.1699 8.83154 43.4068 8.83154H36.3545H36.3441Z" fill="#FFCB05"/>
</svg>
